<?xml version="1.0" encoding="UTF-8" standalone="no"?>
<svg width="1024px" height="1024px" viewBox="0 0 1024 1024" version="1.1" xmlns="http://www.w3.org/2000/svg" xmlns:xlink="http://www.w3.org/1999/xlink">
    <!-- Generator: Sketch 3.8.1 (29687) - http://www.bohemiancoding.com/sketch -->
    <title>1024</title>
    <desc>Created with Sketch.</desc>
    <defs></defs>
    <g id="Page-1" stroke="none" stroke-width="1" fill="none" fill-rule="evenodd">
        <g id="1024" fill="#231F1F">
            <g id="Group-Copy" transform="translate(9.000000, 78.000000)">
                <path d="M51.9400973,688.800468 L46.1346534,688.800468 L46.1346534,651.163949 L50.7775994,651.163949 C65.6364358,651.163949 88.1607127,649.07029 88.1607127,670.218362 C88.1607127,689.498354 65.4109816,688.800468 51.9400973,688.800468 L51.9400973,688.800468 Z M46.1346534,583.327982 L49.382602,583.327982 C61.6909885,583.327982 75.8593716,584.251448 75.8593716,600.281687 C75.8593716,615.148782 63.3184855,617.242441 51.2425985,617.242441 L46.1346534,617.242441 L46.1346534,583.327982 L46.1346534,583.327982 Z M98.3836484,630.255555 L98.3836484,629.783248 C112.537941,622.585854 117.652931,609.812418 117.652931,594.014808 C117.652931,560.551508 96.7561514,548.475959 65.6364358,548.475959 L5.82768183,548.475959 C2.95314165,548.475959 0.621100471,550.802247 0.621100471,553.678385 L0.621100471,718.443016 C0.621100471,721.319154 2.95314165,723.652491 5.82768183,723.652491 L70.744381,723.652491 C102.787049,723.652491 134.139265,711.569892 134.139265,674.863888 C134.139265,650.466062 123.458375,633.505308 98.3836484,630.255555 L98.3836484,630.255555 Z" id="Fill-76-Copy"></path>
                <path d="M231.156405,658.366277 L207.77963,658.366277 C204.214636,658.366277 201.706459,654.869796 202.84782,651.493154 L219.334154,602.60586 L219.799153,602.60586 L236.09526,651.514302 C237.215485,654.883895 234.707308,658.366277 231.156405,658.366277 L231.156405,658.366277 Z M245.90956,551.843437 C245.148652,549.820272 243.211156,548.473844 241.04116,548.473844 L198.528965,548.473844 C196.380105,548.473844 194.449654,549.799124 193.674656,551.80819 L130.336135,716.572821 C129.025683,719.98471 131.540906,723.650376 135.190445,723.650376 L172.383331,723.650376 C174.5181,723.650376 176.43446,722.346245 177.223549,720.365376 L186.685577,696.503301 C187.474667,694.522431 189.391027,693.2183 191.525796,693.2183 L247.072058,693.2183 C249.242054,693.2183 251.186595,694.564728 251.947503,696.601992 L260.796578,720.266685 C261.557486,722.303949 263.494982,723.650376 265.672023,723.650376 L303.069228,723.650376 C306.704675,723.650376 309.219898,720.012908 307.937628,716.608068 L245.90956,551.843437 Z" id="Fill-78-Copy"></path>
                <path d="M502.924452,548.473844 L465.639975,548.473844 C463.512252,548.473844 461.602937,549.763877 460.813847,551.737697 L429.468678,629.738837 C427.700272,634.137636 421.45801,634.074192 419.77415,629.640146 L390.246704,551.829338 C389.485796,549.813222 387.5483,548.473844 385.385349,548.473844 L348.558826,548.473844 C346.022467,548.473844 343.852471,550.306677 343.429744,552.809199 L315.473432,717.57383 C314.937979,720.75309 317.382747,723.650376 320.602514,723.650376 L355.216768,723.650376 C357.802445,723.650376 359.993578,721.754099 360.366986,719.195182 L374.345142,622.816368 L374.817187,622.816368 L413.679843,720.372425 C414.468932,722.353295 416.385293,723.650376 418.513016,723.650376 L429.630723,723.650376 C431.730264,723.650376 433.625488,722.388541 434.428669,720.449968 L475.123139,622.816368 L475.588138,622.816368 L487.783798,719.096491 C488.114934,721.697704 490.327202,723.650376 492.948107,723.650376 L527.823043,723.650376 C531.007582,723.650376 533.445305,720.816535 532.966215,717.665472 L508.067624,552.900841 C507.687171,550.356023 505.496038,548.473844 502.924452,548.473844" id="Fill-80-Copy"></path>
                <path d="M677.445677,548.473844 L635.687345,548.473844 C633.968257,548.473844 632.368942,549.319767 631.396671,550.729639 L604.497175,589.860622 C602.425815,592.870697 597.987187,592.870697 595.922872,589.860622 L569.016331,550.729639 C568.04406,549.319767 566.444745,548.473844 564.725657,548.473844 L522.967324,548.473844 C518.740059,548.473844 516.2812,553.246259 518.725968,556.693395 L576.491544,638.198066 C577.118589,639.079235 577.449724,640.12959 577.449724,641.208141 L577.449724,718.447951 C577.449724,721.317039 579.781766,723.650376 582.656306,723.650376 L617.756696,723.650376 C620.631236,723.650376 622.963277,721.317039 622.963277,718.447951 L622.963277,641.208141 C622.963277,640.12959 623.294413,639.079235 623.921457,638.198066 L681.687033,556.693395 C684.131801,553.246259 681.672942,548.473844 677.445677,548.473844" id="Fill-82-Copy"></path>
                <path d="M739.678063,658.366277 L716.301288,658.366277 C712.736294,658.366277 710.228117,654.869796 711.369479,651.493154 L727.855812,602.60586 L728.320811,602.60586 L744.616918,651.514302 C745.737143,654.883895 743.228966,658.366277 739.678063,658.366277 L739.678063,658.366277 Z M754.431218,551.843437 C753.67031,549.820272 751.732814,548.473844 749.562818,548.473844 L707.050623,548.473844 C704.901763,548.473844 702.971312,549.799124 702.196314,551.80819 L638.857794,716.572821 C637.547341,719.98471 640.062564,723.650376 643.712103,723.650376 L680.904989,723.650376 C683.039758,723.650376 684.956118,722.346245 685.745208,720.365376 L695.207236,696.503301 C695.996325,694.522431 697.912685,693.2183 700.047454,693.2183 L755.593716,693.2183 C757.763712,693.2183 759.708254,694.564728 760.469161,696.601992 L769.318236,720.266685 C770.079144,722.303949 772.01664,723.650376 774.193682,723.650376 L811.590886,723.650376 C815.226334,723.650376 817.741556,720.012908 816.459286,716.608068 L754.431218,551.843437 Z" id="Fill-84-Copy"></path>
                <path d="M994.468005,548.473844 L959.360569,548.473844 C956.493075,548.473844 954.161034,550.807182 954.161034,553.68332 L954.161034,655.574732 L953.696034,655.574732 L871.898457,550.482911 C870.912095,549.214027 869.397325,548.473844 867.79801,548.473844 L830.027398,548.473844 C827.152857,548.473844 824.827862,550.807182 824.827862,553.68332 L824.827862,718.447951 C824.827862,721.317039 827.152857,723.650376 830.027398,723.650376 L865.134833,723.650376 C868.009373,723.650376 870.341414,721.317039 870.341414,718.447951 L870.341414,616.31686 L870.799368,616.31686 L952.596945,721.641309 C953.583307,722.910194 955.098077,723.650376 956.704438,723.650376 L994.468005,723.650376 C997.342545,723.650376 999.674586,721.317039 999.674586,718.447951 L999.674586,553.68332 C999.674586,550.807182 997.342545,548.473844 994.468005,548.473844" id="Fill-86-Copy"></path>
                <polygon id="Fill-88-Copy" points="352.488069 787.351895 343.483994 809.754753 334.980146 787.351895 324.256984 787.351895 317.148134 829.274423 327.984023 829.274423 331.485607 805.144473 331.591289 805.144473 341.208317 829.274423 345.541263 829.274423 355.602154 805.144473 355.707836 805.144473 358.765557 829.274423 369.65781 829.274423 363.323958 787.351895"></polygon>
                <polygon id="Fill-90-Copy" points="419.439491 829.270899 443.281266 829.270899 443.281266 820.04329 430.331744 820.04329 430.331744 812.810649 442.611949 812.810649 442.611949 803.58304 430.331744 803.58304 430.331744 796.583028 443.281266 796.583028 443.281266 787.34837 419.439491 787.34837"></polygon>
                <path d="M508.371283,820.042585 L505.926515,820.042585 L505.926515,796.582323 L508.476965,796.582323 C515.487179,796.582323 520.426034,800.804888 520.426034,808.312454 C520.426034,816.482659 514.874226,820.042585 508.371283,820.042585 M510.484915,787.354714 L495.034262,787.354714 L495.034262,829.270194 L510.484915,829.270194 C522.095803,829.270194 531.769195,820.09898 531.769195,808.312454 C531.769195,796.525928 522.152167,787.354714 510.484915,787.354714" id="Fill-92-Copy"></path>
                <polygon id="Fill-94-Copy" points="581.860171 829.272308 592.752424 829.272308 592.752424 787.34978 581.860171 787.34978"></polygon>
                <path d="M658.305326,813.645998 L662.807363,800.308614 L662.92009,800.308614 L667.365764,813.645998 L658.305326,813.645998 Z M656.973738,787.351895 L640.860813,829.274423 L652.415337,829.274423 L655.303968,821.985388 L670.310759,821.985388 L673.037345,829.274423 L684.641187,829.274423 L668.866443,787.351895 L656.973738,787.351895 Z" id="Fill-96-Copy"></path>
                <path d="M294.681629,358.163752 C304.376157,356.887818 319.854992,350.515199 325.420891,336.451731 C330.98679,322.388263 328.83793,306.047852 328.83793,306.047852 C328.83793,306.047852 326.477707,292.350951 329.331111,275.051828 C332.184515,257.752705 333.403377,247.023583 333.403377,247.023583 C333.403377,247.023583 334.615192,265.70438 344.697219,287.895757 C354.779246,310.087134 333.079286,338.637032 330.18361,364.55047 C326.51998,397.245389 336.193371,415.023869 333.847239,426.140706 C333.269513,428.882906 333.635876,433.013829 338.046323,435.558647 C340.857454,437.187049 343.66154,438.455933 341.569043,442.77014 C340.082455,445.850709 338.398595,452.681536 338.398595,455.635217 C338.398595,458.581848 341.949497,458.180035 341.949497,458.180035 L343.689721,458.180035 L372.801486,458.201183 C374.788301,458.201183 376.296025,456.459992 376.049435,454.486172 C375.239209,448.043059 375.964889,434.938304 362.240369,429.70768 C362.240369,429.70768 347.522442,420.226295 351.150844,395.616988 C353.031977,382.857651 362.909686,366.270513 371.984215,353.257399 C378.12784,344.445702 383.101922,337.114371 385.342372,333.787074 C385.666462,333.307718 386.406234,333.603791 386.342825,334.181838 C385.553735,341.710552 384.158738,366.763968 396.009171,396.018801 C406.091198,420.924181 399.200756,428.678474 402.998249,434.374355 C403.153249,434.614033 403.399839,434.797316 403.66052,434.931254 C404.907564,435.551598 408.521875,437.856738 405.992562,442.925226 C403.33643,448.233392 402.547341,449.777201 403.618248,455.522427 C403.907111,457.045088 405.217563,458.180035 406.76756,458.180035 C413.348003,458.187084 430.764334,458.194134 439.127274,458.201183 C441.262042,458.201183 442.854312,456.185067 442.290677,454.119605 C440.247499,446.626138 439.021592,435.30487 431.088425,429.305867 C418.88572,420.071209 420.654126,406.4589 417.328677,385.881825 C417.328677,385.881825 412.742095,356.147636 426.255252,339.130487 C431.560469,332.447696 434.688645,328.810228 437.133414,325.398339 L437.133414,325.398339 C437.133414,325.398339 437.15455,325.363092 437.15455,325.356042 C437.520913,324.848489 437.866139,324.347984 438.204321,323.840431 C441.290224,319.709507 451.083388,309.022681 467.921993,312.117349 C467.964266,312.124399 467.999493,312.124399 468.041766,312.131448 C482.217194,314.704463 503.903064,316.487951 534.459144,313.442628 C536.925049,313.20295 538.996409,315.28956 538.615955,317.735687 C537.03073,327.914959 533.50801,351.882774 533.028919,366.369204 C532.401875,385.127544 535.466642,374.842532 528.188701,399.050025 C520.91076,423.257518 518.494173,431.124601 522.122576,435.058143 C525.750978,438.991684 526.885294,442.636202 524.165754,447.175988 C522.538257,449.889991 522.42553,453.29483 522.59462,455.592921 C522.707348,457.073286 523.961436,458.201183 525.448024,458.201183 L556.757967,458.201183 C558.307964,458.201183 559.583189,456.988694 559.625462,455.437835 C559.745234,450.355248 560.379324,439.14677 549.945025,429.305867 C536.826413,416.934245 582.713374,321.944153 588.631545,309.847456 C588.878135,309.431544 589.378362,308.909892 589.963133,310.418454 L589.963133,310.418454 C592.78131,317.742736 603.807426,345.672291 614.967406,363.33798 C627.719655,383.52734 618.539444,415.721755 626.557157,425.471017 C632.207601,432.330041 624.105343,436.771137 620.30785,442.925226 C617.538992,447.422716 617.856037,451.955452 618.504217,455.860796 C618.729671,457.228372 619.934442,458.201183 621.315348,458.201183 L655.041878,458.201183 C656.556647,458.201183 657.803691,457.038039 657.902327,455.522427 C658.233463,450.34115 658.677325,436.559656 649.595751,430.666393 C641.275085,425.273635 654.28097,422.954396 647.122801,357.691445 C643.050536,320.527233 625.246705,303.693367 632.813509,287.388203 C632.813509,287.388203 646.319621,266.90982 647.122801,254.002447 C648.306435,235.074922 654.76006,211.431377 692.544763,185.475643 C694.447033,184.171512 696.941119,184.058722 698.963161,185.158422 C705.444967,188.697199 719.69085,196.973145 725.510385,204.297427 C733.154689,213.933899 749.486023,232.375018 770.890074,216.563309 C792.294126,200.744551 770.890074,173.55518 770.890074,173.55518 C770.890074,173.55518 762.618726,161.966036 763.745996,143.433275 C764.873267,124.893465 753.065107,97.2247376 744.251259,89.4774938 C744.251259,89.4774938 748.436252,85.45936 751.966018,85.7624824 C751.966018,85.7624824 750.95852,79.876269 741.179447,85.7413343 C741.179447,85.7413343 745.012167,79.9115157 750.655566,77.4865368 C750.655566,77.4865368 750.24693,73.9336606 748.08398,71.4734349 C748.08398,71.4734349 744.97694,70.3455377 737.381954,77.648672 C737.381954,77.648672 742.997171,69.2176405 748.238979,65.0796677 C748.238979,65.0796677 747.316026,63.4019207 743.588988,62.0202466 C743.588988,62.0202466 746.371937,57.8681751 743.800351,44.8550613 C741.228765,31.8489968 745.61103,26.5408307 740.474903,16.4813977 C740.474903,16.4813977 737.050818,9.58007674 733.922642,21.8459587 C730.794466,34.1188899 728.377879,33.5126452 724.446523,40.470361 C720.515167,47.4280767 718.852442,51.8198264 717.94358,56.662735 L711.215184,57.1138938 C711.215184,57.1138938 713.07518,38.6657255 704.923604,21.3384049 C696.772028,4.01108437 687.401591,0.0211480723 684.977959,0.197382008 C682.561373,0.373615943 681.955465,5.97785509 683.167281,15.205464 C684.372051,24.4330728 680.807058,29.7130415 679.200697,39.3283651 C677.594336,48.9436886 676.974337,49.7966608 677.7282,56.2538722 C677.7282,56.2538722 675.607522,56.0564902 673.486844,57.5650527 C673.486844,57.5650527 672.662527,61.5056435 675.114341,66.7997109 L676.05843,69.0625547 C676.05843,69.0625547 670.224804,66.327404 669.513215,59.108862 C669.513215,59.108862 666.230039,62.7886266 670.30935,72.6224802 C670.30935,72.6224802 665.701631,65.5872215 664.34186,62.3304183 C664.34186,62.3304183 650.807567,68.6889387 643.776216,78.4452494 C643.776216,78.4452494 647.327119,84.8742634 647.630073,88.3566459 L639.541906,79.8833183 L644.149625,91.1552408 L635.983958,84.1199821 C635.983958,84.1199821 629.368288,86.4039739 617.144447,98.6910039 L621.618302,106.283162 L613.149682,101.14418 C613.149682,101.14418 615.953767,104.541971 616.327176,109.843087 L611.486957,102.201584 L608.464463,103.258988 C608.464463,103.258988 612.31832,109.081757 612.015366,113.395963 C612.015366,113.395963 608.013555,106.283162 606.35083,105.077722 C606.35083,105.077722 603.701744,104.541971 601.96152,107.721231 C601.96152,107.721231 604.307652,113.776629 603.018337,116.94884 C603.018337,116.94884 603.109927,111.816907 599.995842,109.913581 C599.995842,109.913581 600.221296,114.227788 598.107664,120.656802 C598.107664,120.656802 598.558572,116.194558 595.388123,114.305331 C595.388123,114.305331 593.81699,123.977049 590.280178,125.238884 L585.792232,126.839088 C585.792232,126.839088 586.637685,123.180472 584.425416,120.1281 C581.973602,116.765556 572.328393,113.395963 562.79591,118.386909 C553.270473,123.384903 524.806889,141.51585 458.290875,131.385924 C391.77486,121.263046 393.740539,136.390967 400.546435,143.214745 C400.546435,143.214745 308.744331,150.390991 319.566129,263.526129 C319.566129,263.526129 324.300666,292.083075 313.535231,305.519151 C313.535231,305.519151 302.03707,310.474849 297.809805,328.908919 C293.575495,347.342988 293.681177,348.766958 291.800044,351.27653 C289.918911,353.779052 284.987102,359.439686 294.681629,358.163752" id="Fill-97-Copy"></path>
            </g>
        </g>
    </g>
</svg>