<svg id="Layer_1" data-name="Layer 1" xmlns="http://www.w3.org/2000/svg" viewBox="0 0 119.66 111.43"><defs><style>.cls-1{fill:#231f20;}</style></defs><title>Artboard 15</title><path class="cls-1" d="M1.42,87.09c2.36-.31,6.13-1.86,7.48-5.28a16.94,16.94,0,0,0,.83-7.4,25.08,25.08,0,0,1,.12-7.54c.69-4.21,1-6.82,1-6.82A31.59,31.59,0,0,0,13.59,70c2.45,5.4-2.83,12.35-3.53,18.65-.89,8,1.46,12.28.89,15a2,2,0,0,0,1,2.29c.69.4,1.37.7.86,1.75a10.12,10.12,0,0,0-.77,3.13c0,.72.87.62.87.62h7.51a.8.8,0,0,0,.79-.9c-.2-1.57,0-4.76-3.36-6,0,0-3.58-2.31-2.7-8.29.46-3.1,2.86-7.14,5.07-10.31,1.5-2.14,2.71-3.93,3.25-4.74a.13.13,0,0,1,.24.1,32.53,32.53,0,0,0,2.35,15c2.45,6.06.78,7.95,1.7,9.33a.42.42,0,0,0,.16.14,1.31,1.31,0,0,1,.57,1.94,3.73,3.73,0,0,0-.58,3.06.79.79,0,0,0,.77.65h7.88a.79.79,0,0,0,.77-1c-.5-1.82-.8-4.58-2.73-6-3-2.25-2.54-5.56-3.35-10.56,0,0-1.12-7.24,2.17-11.37,1.29-1.63,2.05-2.51,2.65-3.34h0l.25-.37a7.24,7.24,0,0,1,7.23-2.85h0a58.64,58.64,0,0,0,16.17.32.92.92,0,0,1,1,1c-.39,2.48-1.24,8.31-1.36,11.83-.15,4.56.59,2.06-1.18,8s-2.36,7.8-1.48,8.76a2.21,2.21,0,0,1,.5,2.95,3.58,3.58,0,0,0-.38,2,.69.69,0,0,0,.69.63h7.62a.69.69,0,0,0,.7-.67,7.68,7.68,0,0,0-2.36-6.36c-3.19-3,8-26.12,9.42-29.06.06-.1.18-.23.32.14h0a86.57,86.57,0,0,0,6.09,12.88c3.1,4.91.87,12.75,2.82,15.12,1.37,1.67-.6,2.75-1.52,4.25a4.32,4.32,0,0,0-.44,3.15.69.69,0,0,0,.69.57h8.21a.69.69,0,0,0,.7-.65c.08-1.26.19-4.61-2-6-2-1.31,1.14-1.88-.6-17.76-1-9-5.33-13.14-3.48-17.1,0,0,3.29-5,3.48-8.12.29-4.6,1.86-10.36,11.06-16.67A1.5,1.5,0,0,1,99.83,45c1.58.86,5,2.87,6.46,4.66,1.86,2.34,5.84,6.83,11,3s0-10.46,0-10.46a12.14,12.14,0,0,1-1.74-7.33c.27-4.51-2.6-11.24-4.75-13.13,0,0,1-1,1.88-.9,0,0-.25-1.43-2.63,0a6.09,6.09,0,0,1,2.31-2,3,3,0,0,0-.63-1.46s-.76-.28-2.6,1.5a16.21,16.21,0,0,1,2.64-3.06A2.11,2.11,0,0,0,110.7,15s.68-1,.05-4.18.44-4.46-.81-6.9c0,0-.83-1.68-1.59,1.3S107,8.11,106,9.8a12.11,12.11,0,0,0-1.58,3.94l-1.64.11a18.47,18.47,0,0,0-1.53-8.7C99.3.93,97,0,96.43,0S95.69,1.41,96,3.65s-.57,3.53-1,5.87-.54,2.55-.36,4.12a1.67,1.67,0,0,0-1,.32A3.9,3.9,0,0,0,94,16.2l.23.55a3.07,3.07,0,0,1-1.59-2.42s-.8.89.19,3.29a24,24,0,0,1-1.45-2.5,14.93,14.93,0,0,0-5,3.92,8.88,8.88,0,0,1,.94,2.41l-2-2.06,1.12,2.74-2-1.71S82.89,21,79.91,24L81,25.81l-2.06-1.25a4,4,0,0,1,.77,2.12l-1.18-1.86-.74.26a5.14,5.14,0,0,1,.87,2.47,11.65,11.65,0,0,0-1.38-2,1,1,0,0,0-1.07.64,4.1,4.1,0,0,1,.26,2.25s0-1.25-.74-1.71a7.89,7.89,0,0,1-.46,2.61,1.72,1.72,0,0,0-.66-1.55s-.38,2.35-1.24,2.66l-1.09.39a2.18,2.18,0,0,0-.33-1.63c-.6-.82-2.94-1.64-5.26-.42s-9.25,5.63-25.44,3.16S25.53,33.14,27.19,34.8c0,0-22.35,1.75-19.71,29.27,0,0,1.15,6.95-1.47,10.22,0,0-2.8,1.2-3.83,5.69s-1,4.83-1.46,5.44S-.94,87.41,1.42,87.09Z"/></svg>