<svg id="Layer_1" data-name="Layer 1" xmlns="http://www.w3.org/2000/svg" viewBox="0 0 243.21 68.32"><defs><style>.cls-1{fill:#231f20;}</style></defs><title>Artboard 14</title><path class="cls-1" d="M23.8,19.9v-.11c3.45-1.75,4.69-4.86,4.69-8.7C28.49,2.94,23.4,0,15.83,0H1.27A1.27,1.27,0,0,0,0,1.27V41.35a1.27,1.27,0,0,0,1.27,1.27h15.8c7.8,0,15.43-2.94,15.43-11.87C32.5,24.81,29.9,20.69,23.8,19.9ZM11.08,8.48h.79c3,0,6.44.23,6.44,4.13,0,3.62-3.05,4.13-6,4.13H11.08Zm1.41,25.66H11.08V25h1.13c3.62,0,9.1-.51,9.1,4.64C21.31,34.31,15.77,34.14,12.49,34.14Z"/><path class="cls-1" d="M59.71.82A1.27,1.27,0,0,0,58.53,0H48.18A1.27,1.27,0,0,0,47,.81L31.58,40.9a1.27,1.27,0,0,0,1.18,1.72h9.05a1.27,1.27,0,0,0,1.18-.8L45.29,36a1.27,1.27,0,0,1,1.18-.8H60a1.27,1.27,0,0,1,1.19.82l2.15,5.76a1.27,1.27,0,0,0,1.19.82h9.1a1.27,1.27,0,0,0,1.19-1.71ZM56.12,26.74H50.43a1.27,1.27,0,0,1-1.2-1.67l4-11.9h.11l4,11.9A1.27,1.27,0,0,1,56.12,26.74Z"/><path class="cls-1" d="M122.28,0H113.2A1.27,1.27,0,0,0,112,.79l-7.63,19a1.27,1.27,0,0,1-2.36,0L94.85.82A1.27,1.27,0,0,0,93.67,0h-9a1.27,1.27,0,0,0-1.25,1.05L76.65,41.14a1.27,1.27,0,0,0,1.25,1.48h8.43a1.27,1.27,0,0,0,1.25-1.08L91,18.09h.11l9.46,23.73a1.27,1.27,0,0,0,1.18.8h2.71a1.27,1.27,0,0,0,1.17-.78l9.91-23.75h.11l3,23.43a1.27,1.27,0,0,0,1.26,1.11h8.49a1.27,1.27,0,0,0,1.25-1.46L123.53,1.08A1.27,1.27,0,0,0,122.28,0Z"/><path class="cls-1" d="M164.76,0H154.6a1.27,1.27,0,0,0-1,.55L147,10.07a1.27,1.27,0,0,1-2.09,0L138.37.55a1.27,1.27,0,0,0-1-.55H127.16a1.27,1.27,0,0,0-1,2l14.06,19.83a1.27,1.27,0,0,1,.23.73V41.35a1.27,1.27,0,0,0,1.27,1.27h8.55a1.27,1.27,0,0,0,1.27-1.27V22.56a1.27,1.27,0,0,1,.23-.73L165.8,2A1.27,1.27,0,0,0,164.76,0Z"/><path class="cls-1" d="M183.51.82A1.27,1.27,0,0,0,182.32,0H172a1.27,1.27,0,0,0-1.18.81L155.37,40.9a1.27,1.27,0,0,0,1.18,1.72h9.05a1.27,1.27,0,0,0,1.18-.8l2.3-5.81a1.27,1.27,0,0,1,1.18-.8h13.52A1.27,1.27,0,0,1,185,36l2.15,5.76a1.27,1.27,0,0,0,1.19.82h9.1a1.27,1.27,0,0,0,1.19-1.71Zm-3.59,25.92h-5.69a1.27,1.27,0,0,1-1.2-1.67l4-11.9h.11l4,11.9A1.27,1.27,0,0,1,179.91,26.74Z"/><path class="cls-1" d="M241.94,0h-8.55a1.27,1.27,0,0,0-1.27,1.27V26.06H232L212.1.49a1.27,1.27,0,0,0-1-.49h-9.19a1.27,1.27,0,0,0-1.27,1.27V41.35a1.27,1.27,0,0,0,1.27,1.27h8.55a1.27,1.27,0,0,0,1.27-1.27V16.51h.11l19.91,25.63a1.27,1.27,0,0,0,1,.49h9.19a1.27,1.27,0,0,0,1.27-1.27V1.27A1.27,1.27,0,0,0,241.94,0Z"/><polygon class="cls-1" points="85.66 58.12 83.47 63.57 81.4 58.12 78.78 58.12 77.05 68.32 79.69 68.32 80.55 62.45 80.57 62.45 82.91 68.32 83.97 68.32 86.42 62.45 86.44 62.45 87.19 68.32 89.84 68.32 88.3 58.12 85.66 58.12"/><polygon class="cls-1" points="101.96 68.32 107.76 68.32 107.76 66.07 104.61 66.07 104.61 64.31 107.6 64.31 107.6 62.07 104.61 62.07 104.61 60.37 107.76 60.37 107.76 58.12 101.96 58.12 101.96 68.32"/><path class="cls-1" d="M124.12,58.12h-3.76v10.2h3.76a5.1,5.1,0,1,0,0-10.2Zm-.51,8H123V60.37h.62a2.85,2.85,0,1,1,0,5.71Z"/><rect class="cls-1" x="141.5" y="58.12" width="2.65" height="10.2"/><path class="cls-1" d="M159.78,58.12l-3.92,10.2h2.81l.7-1.77H163l.66,1.77h2.83l-3.84-10.2Zm.32,6.4,1.1-3.25h0l1.08,3.25Z"/></svg>