<svg id="Layer_1" data-name="Layer 1" xmlns="http://www.w3.org/2000/svg" viewBox="0 0 243.21 201.72"><defs><style>.cls-1{fill:#231f20;}</style></defs><title>Artboard 13</title><path class="cls-1" d="M23.8,153.3v-.11c3.45-1.75,4.69-4.86,4.69-8.7,0-8.14-5.09-11.08-12.66-11.08H1.27A1.27,1.27,0,0,0,0,134.66v40.09A1.27,1.27,0,0,0,1.27,176h15.8c7.8,0,15.43-2.94,15.43-11.87C32.5,158.21,29.9,154.09,23.8,153.3ZM11.08,141.88h.79c3,0,6.44.23,6.44,4.13,0,3.62-3.05,4.13-6,4.13H11.08Zm1.41,25.66H11.08v-9.16h1.13c3.62,0,9.1-.51,9.1,4.64C21.31,167.71,15.77,167.54,12.49,167.54Z"/><path class="cls-1" d="M59.71,134.22a1.27,1.27,0,0,0-1.19-.82H48.18a1.27,1.27,0,0,0-1.18.81L31.58,174.3A1.27,1.27,0,0,0,32.76,176h9.05a1.27,1.27,0,0,0,1.18-.8l2.3-5.81a1.27,1.27,0,0,1,1.18-.8H60a1.27,1.27,0,0,1,1.19.82l2.15,5.76a1.27,1.27,0,0,0,1.19.82h9.1a1.27,1.27,0,0,0,1.19-1.71Zm-3.59,25.92H50.43a1.27,1.27,0,0,1-1.2-1.67l4-11.9h.11l4,11.9A1.27,1.27,0,0,1,56.12,160.13Z"/><path class="cls-1" d="M122.28,133.4H113.2a1.27,1.27,0,0,0-1.18.79l-7.63,19a1.27,1.27,0,0,1-2.36,0l-7.19-18.93a1.27,1.27,0,0,0-1.18-.82h-9a1.27,1.27,0,0,0-1.25,1.05l-6.81,40.09A1.27,1.27,0,0,0,77.9,176h8.43a1.27,1.27,0,0,0,1.25-1.08L91,151.49h.11l9.46,23.73a1.27,1.27,0,0,0,1.18.8h2.71a1.27,1.27,0,0,0,1.17-.78l9.91-23.75h.11l3,23.43a1.27,1.27,0,0,0,1.26,1.11h8.49a1.27,1.27,0,0,0,1.25-1.46l-6.06-40.09A1.27,1.27,0,0,0,122.28,133.4Z"/><path class="cls-1" d="M164.76,133.4H154.6a1.27,1.27,0,0,0-1,.55L147,143.47a1.27,1.27,0,0,1-2.09,0l-6.55-9.52a1.27,1.27,0,0,0-1-.55H127.16a1.27,1.27,0,0,0-1,2l14.06,19.83a1.27,1.27,0,0,1,.23.73v18.79a1.27,1.27,0,0,0,1.27,1.27h8.55a1.27,1.27,0,0,0,1.27-1.27V156a1.27,1.27,0,0,1,.23-.73L165.8,135.4A1.27,1.27,0,0,0,164.76,133.4Z"/><path class="cls-1" d="M183.51,134.22a1.27,1.27,0,0,0-1.19-.82H172a1.27,1.27,0,0,0-1.18.81L155.37,174.3a1.27,1.27,0,0,0,1.18,1.72h9.05a1.27,1.27,0,0,0,1.18-.8l2.3-5.81a1.27,1.27,0,0,1,1.18-.8h13.52a1.27,1.27,0,0,1,1.19.82l2.15,5.76a1.27,1.27,0,0,0,1.19.82h9.1a1.27,1.27,0,0,0,1.19-1.71Zm-3.59,25.92h-5.69a1.27,1.27,0,0,1-1.2-1.67l4-11.9h.11l4,11.9A1.27,1.27,0,0,1,179.91,160.13Z"/><path class="cls-1" d="M241.94,133.4h-8.55a1.27,1.27,0,0,0-1.27,1.27v24.79H232L212.1,133.89a1.27,1.27,0,0,0-1-.49h-9.19a1.27,1.27,0,0,0-1.27,1.27v40.09a1.27,1.27,0,0,0,1.27,1.27h8.55a1.27,1.27,0,0,0,1.27-1.27V149.9h.11l19.91,25.63a1.27,1.27,0,0,0,1,.49h9.19a1.27,1.27,0,0,0,1.27-1.27V134.66A1.27,1.27,0,0,0,241.94,133.4Z"/><polygon class="cls-1" points="85.66 191.52 83.47 196.97 81.4 191.52 78.78 191.52 77.05 201.72 79.69 201.72 80.55 195.85 80.57 195.85 82.91 201.72 83.97 201.72 86.42 195.85 86.44 195.85 87.19 201.72 89.84 201.72 88.3 191.52 85.66 191.52"/><polygon class="cls-1" points="101.96 201.72 107.76 201.72 107.76 199.47 104.61 199.47 104.61 197.71 107.6 197.71 107.6 195.47 104.61 195.47 104.61 193.76 107.76 193.76 107.76 191.52 101.96 191.52 101.96 201.72"/><path class="cls-1" d="M124.12,191.52h-3.76v10.2h3.76a5.1,5.1,0,1,0,0-10.2Zm-.51,8H123v-5.71h.62a2.85,2.85,0,1,1,0,5.71Z"/><rect class="cls-1" x="141.5" y="191.52" width="2.65" height="10.2"/><path class="cls-1" d="M159.78,191.52l-3.92,10.2h2.81l.7-1.77H163l.66,1.77h2.83l-3.84-10.2Zm.32,6.4,1.1-3.25h0l1.08,3.25Z"/><path class="cls-1" d="M71.58,87.09c2.36-.31,6.13-1.86,7.48-5.28a16.94,16.94,0,0,0,.83-7.4A25.08,25.08,0,0,1,80,66.87c.69-4.21,1-6.82,1-6.82A31.59,31.59,0,0,0,83.76,70c2.45,5.4-2.83,12.35-3.53,18.65-.89,8,1.46,12.28.89,15a2,2,0,0,0,1,2.29c.69.4,1.37.7.86,1.75a10.12,10.12,0,0,0-.77,3.13c0,.72.87.62.87.62H90.6a.8.8,0,0,0,.79-.9c-.2-1.57,0-4.76-3.36-6,0,0-3.58-2.31-2.7-8.29.46-3.1,2.86-7.14,5.07-10.31,1.5-2.14,2.71-3.93,3.25-4.74a.13.13,0,0,1,.24.1,32.53,32.53,0,0,0,2.35,15c2.45,6.06.78,7.95,1.7,9.33a.42.42,0,0,0,.16.14,1.31,1.31,0,0,1,.57,1.94,3.73,3.73,0,0,0-.58,3.06.79.79,0,0,0,.77.65h7.88a.79.79,0,0,0,.77-1c-.5-1.82-.8-4.58-2.73-6-3-2.25-2.54-5.56-3.35-10.56,0,0-1.12-7.24,2.17-11.37,1.29-1.63,2.05-2.51,2.65-3.34h0l.25-.37a7.24,7.24,0,0,1,7.23-2.85h0a58.64,58.64,0,0,0,16.17.32.92.92,0,0,1,1,1c-.39,2.48-1.24,8.31-1.36,11.83-.15,4.56.59,2.06-1.18,8s-2.36,7.8-1.48,8.76a2.21,2.21,0,0,1,.5,2.95,3.58,3.58,0,0,0-.38,2,.69.69,0,0,0,.69.63h7.62a.69.69,0,0,0,.7-.67,7.68,7.68,0,0,0-2.36-6.36c-3.19-3,8-26.12,9.42-29.06.06-.1.18-.23.32.14h0a86.57,86.57,0,0,0,6.09,12.88c3.1,4.91.87,12.75,2.82,15.12,1.37,1.67-.6,2.75-1.52,4.25a4.32,4.32,0,0,0-.44,3.15.69.69,0,0,0,.69.57h8.21a.69.69,0,0,0,.7-.65c.08-1.26.19-4.61-2-6-2-1.31,1.14-1.88-.6-17.76-1-9-5.33-13.14-3.48-17.1,0,0,3.29-5,3.48-8.12.29-4.6,1.86-10.36,11.06-16.67A1.5,1.5,0,0,1,170,45c1.58.86,5,2.87,6.46,4.66,1.86,2.34,5.84,6.83,11,3s0-10.46,0-10.46a12.14,12.14,0,0,1-1.74-7.33c.27-4.51-2.6-11.24-4.75-13.13,0,0,1-1,1.88-.9,0,0-.25-1.43-2.63,0a6.09,6.09,0,0,1,2.31-2,3,3,0,0,0-.63-1.46s-.76-.28-2.6,1.5A16.21,16.21,0,0,1,182,15.79a2.11,2.11,0,0,0-1.13-.74s.68-1,.05-4.18.44-4.46-.81-6.9c0,0-.83-1.68-1.59,1.3s-1.35,2.84-2.31,4.53a12.11,12.11,0,0,0-1.58,3.94l-1.64.11a18.47,18.47,0,0,0-1.53-8.7C169.47.93,167.19,0,166.6,0s-.74,1.41-.44,3.65-.57,3.53-1,5.87-.54,2.55-.36,4.12a1.67,1.67,0,0,0-1,.32,3.9,3.9,0,0,0,.4,2.25l.23.55a3.07,3.07,0,0,1-1.59-2.42s-.8.89.19,3.29a24,24,0,0,1-1.45-2.5,14.93,14.93,0,0,0-5,3.92,8.88,8.88,0,0,1,.94,2.41l-2-2.06,1.12,2.74-2-1.71s-1.61.56-4.59,3.54l1.09,1.85-2.06-1.25a4,4,0,0,1,.77,2.12l-1.18-1.86-.74.26a5.14,5.14,0,0,1,.87,2.47,11.65,11.65,0,0,0-1.38-2,1,1,0,0,0-1.07.64,4.1,4.1,0,0,1,.26,2.25s0-1.25-.74-1.71a7.89,7.89,0,0,1-.46,2.61,1.72,1.72,0,0,0-.66-1.55s-.38,2.35-1.24,2.66l-1.09.39a2.18,2.18,0,0,0-.33-1.63c-.6-.82-2.94-1.64-5.26-.42s-9.25,5.63-25.44,3.16S95.7,33.14,97.36,34.8c0,0-22.35,1.75-19.71,29.27,0,0,1.15,6.95-1.47,10.22,0,0-2.8,1.2-3.83,5.69s-1,4.83-1.46,5.44S69.23,87.41,71.58,87.09Z"/></svg>